<svg xmlns="http://www.w3.org/2000/svg" version="1.1" xmlns:xlink="http://www.w3.org/1999/xlink" xmlns:svgjs="http://svgjs.dev/svgjs" width="128" height="128" viewBox="0 0 128 128"><g transform="matrix(0.8046875,0,0,0.8046875,12.411840748212605,12.814873242367192)"><svg viewBox="0 0 98 98" data-background-color="#21232b" preserveAspectRatio="xMidYMid meet" height="127" width="128" xmlns="http://www.w3.org/2000/svg" xmlns:xlink="http://www.w3.org/1999/xlink"><g id="tight-bounds" transform="matrix(1,0,0,1,0.0838796764579115,0.0838796764579115)"><svg viewBox="0 0 97.83224064708416 97.83224064708416" height="97.83224064708416" width="97.83224064708416"><g><svg></svg></g><g><svg viewBox="0 0 97.83224064708416 97.83224064708416" height="97.83224064708416" width="97.83224064708416"><g><path d="M0 48.916c0-27.016 21.9-48.916 48.916-48.916 27.016 0 48.916 21.9 48.916 48.916 0 27.016-21.9 48.916-48.916 48.916-27.016 0-48.916-21.9-48.916-48.916zM48.916 93.244c24.481 0 44.328-19.846 44.328-44.328 0-24.481-19.846-44.328-44.328-44.327-24.481 0-44.328 19.846-44.327 44.327 0 24.481 19.846 44.328 44.327 44.328z" data-fill-palette-color="tertiary" fill="#000000" stroke="transparent"></path><ellipse rx="46.9594755106004" ry="46.9594755106004" cx="48.91612032354208" cy="48.91612032354208" fill="#000000" stroke="transparent" stroke-width="0" fill-opacity="1" data-fill-palette-color="tertiary"></ellipse></g><g transform="matrix(1,0,0,1,23.475648490313116,23.475393915029343)"><svg viewBox="0 0 50.88094366645793 50.881452817025476" height="50.881452817025476" width="50.88094366645793"><g><svg viewBox="0 0 50.88094366645793 50.881452817025476" height="50.881452817025476" width="50.88094366645793"><g><svg viewBox="0 0 50.88094366645793 50.881452817025476" height="50.881452817025476" width="50.88094366645793"><g id="textblocktransform"><svg viewBox="0 0 50.88094366645793 50.881452817025476" height="50.881452817025476" width="50.88094366645793" id="textblock"><g><svg viewBox="0 0 50.88094366645793 50.881452817025476" height="50.881452817025476" width="50.88094366645793"><g><svg viewBox="0 0 50.88094366645793 50.881452817025476" height="50.881452817025476" width="50.88094366645793"><g><svg xmlns="http://www.w3.org/2000/svg" xmlns:xlink="http://www.w3.org/1999/xlink" version="1.1" x="0" y="0" viewBox="0 0 99.933 99.934" enable-background="new 0 0 100 100" xml:space="preserve" height="50.881452817025476" width="50.88094366645793" class="icon-icon-0" data-fill-palette-color="quaternary" id="icon-0"><path d="M49.965 0C22.37 0 0 22.372 0 49.967c0 27.597 22.37 49.967 49.965 49.967 27.597 0 49.968-22.37 49.968-49.967C99.933 22.372 77.562 0 49.965 0zM55.391 81.857c0 1.012-0.827 1.84-1.84 1.84h-7.718c-1.013 0-1.84-0.828-1.84-1.84v-6.954c0-1.011 0.828-1.84 1.84-1.84h7.718c1.013 0 1.84 0.829 1.84 1.84V81.857zM70.239 41.53c-0.458 1.557-1.069 2.898-1.831 4.028-0.763 1.129-1.632 2.137-2.608 3.021-0.977 0.884-1.953 1.754-2.928 2.607-1.16 0.977-2.229 1.922-3.203 2.838-0.978 0.915-1.833 1.938-2.563 3.065-0.733 1.129-1.298 2.458-1.693 3.981-0.256 0.983-0.408 2.105-0.52 3.363-0.16 1.796-1.141 2.22-1.949 2.22-0.81 0-6.031 0-6.031 0-1.089 0-1.955-0.891-1.926-1.979 0 0 0.083-2.977 0.359-4.839 0.273-1.86 0.715-3.492 1.328-4.896 0.608-1.402 1.355-2.638 2.241-3.707 0.883-1.067 1.936-2.119 3.157-3.158 0.975-0.853 1.906-1.647 2.793-2.378 0.884-0.733 1.677-1.542 2.378-2.427 0.7-0.884 1.25-1.875 1.648-2.974 0.396-1.098 0.593-2.409 0.593-3.935 0-1.832-0.319-3.401-0.961-4.715-0.638-1.311-1.417-2.363-2.332-3.158-0.916-0.791-1.893-1.371-2.93-1.738-1.038-0.366-1.953-0.549-2.746-0.549-3.785 0-6.575 1.236-8.375 3.707-1.411 1.938-2.148 4.405-2.574 7.358-0.304 2.11-1.535 2.572-2.281 2.572s-6.298 0-6.298 0c-1.09 0-1.911-0.889-1.825-1.975 0 0 0.348-4.432 1.354-7.178 1.007-2.746 2.472-5.093 4.395-7.046 1.921-1.951 4.24-3.463 6.955-4.531 2.715-1.067 5.751-1.601 9.108-1.601 2.806 0 5.413 0.412 7.826 1.236 2.41 0.824 4.516 2.013 6.315 3.568 1.799 1.557 3.217 3.494 4.255 5.813 1.037 2.32 1.557 4.942 1.557 7.872C70.926 38.128 70.696 39.973 70.239 41.53z" fill="#ffffff" data-fill-palette-color="quaternary"></path></svg></g></svg></g></svg></g></svg></g></svg></g><g></g></svg></g></svg></g></svg></g><defs></defs></svg><rect width="97.83224064708416" height="97.83224064708416" fill="none" stroke="none" visibility="hidden"></rect></g></svg></g></svg>